<svg xmlns="http://www.w3.org/2000/svg" x="0px" y="0px"
     width="16" height="16"
     viewBox="0 0 252 252"
     style="fill:#000000;"><g fill="none" fill-rule="nonzero" stroke="none" stroke-width="1" stroke-linecap="butt" stroke-linejoin="miter" stroke-miterlimit="10" stroke-dasharray="" stroke-dashoffset="0" style="mix-blend-mode: normal"><path d="M0,252v-252h252v252z" fill="none"></path><g fill="#ffffff"><g id="Layer_1"></g><g id="Layer_3"><path d="M126,5.25c-46.2,0 -94.42125,36.687 -94.5,89.25c-0.0945,62.90025 94.5,157.5 94.5,157.5c0,0 94.59975,-94.4685 94.5,-157.5c-0.084,-52.48425 -48.3,-89.25 -94.5,-89.25zM126,136.5c-23.1945,0 -42,-18.8055 -42,-42c0,-23.1945 18.8055,-42 42,-42c23.1945,0 42,18.8055 42,42c0,23.1945 -18.8055,42 -42,42z"></path></g></g></g></svg>