<svg xmlns="http://www.w3.org/2000/svg" x="0px" y="0px"
     width="200" height="200"
     viewBox="0 0 50 50"
     style="fill:#13468a;"><g id="surface1"><path style=" " d="M 6 0 C 2.691406 0 0 2.691406 0 6 C 0 9.308594 2.691406 12 6 12 C 7.296875 12 8.488281 11.578125 9.46875 10.875 L 17.25 18.6875 C 15.839844 20.410156 15 22.605469 15 25 C 15 26.980469 15.597656 28.820313 16.59375 30.375 L 10.03125 35.5625 C 8.964844 34.59375 7.550781 34 6 34 C 2.691406 34 0 36.691406 0 40 C 0 43.308594 2.691406 46 6 46 C 9.308594 46 12 43.308594 12 40 C 12 38.964844 11.742188 38.007813 11.28125 37.15625 L 17.84375 31.9375 C 19.664063 33.8125 22.1875 35 25 35 C 26.320313 35 27.566406 34.746094 28.71875 34.28125 L 31.34375 39.25 C 29.921875 40.347656 29 42.066406 29 44 C 29 47.308594 31.691406 50 35 50 C 38.308594 50 41 47.308594 41 44 C 41 40.691406 38.308594 38 35 38 C 34.34375 38 33.714844 38.117188 33.125 38.3125 L 30.5 33.34375 C 32.386719 32.097656 33.828125 30.230469 34.53125 28.03125 L 38 28.75 C 37.996094 28.832031 38 28.917969 38 29 C 38 32.308594 40.691406 35 44 35 C 47.308594 35 50 32.308594 50 29 C 50 25.691406 47.308594 23 44 23 C 41.460938 23 39.28125 24.578125 38.40625 26.8125 L 34.9375 26.0625 C 34.972656 25.714844 35 25.355469 35 25 C 35 21.050781 32.675781 17.65625 29.34375 16.03125 L 30.875 11.90625 C 31.234375 11.972656 31.621094 12 32 12 C 35.308594 12 38 9.308594 38 6 C 38 2.691406 35.308594 0 32 0 C 28.691406 0 26 2.691406 26 6 C 26 8.21875 27.234375 10.148438 29.03125 11.1875 L 27.46875 15.3125 C 26.675781 15.109375 25.855469 15 25 15 C 22.605469 15 20.410156 15.839844 18.6875 17.25 L 10.875 9.46875 C 11.578125 8.488281 12 7.296875 12 6 C 12 2.691406 9.308594 0 6 0 Z "></path></g></svg>