<svg xmlns="http://www.w3.org/2000/svg" x="0px" y="10px"
width="26" height="26"
viewBox="0 0 191 191"
style=" fill:#000000;"><g fill="none" fill-rule="nonzero" stroke="none" stroke-width="1" stroke-linecap="butt" stroke-linejoin="miter" stroke-miterlimit="10" stroke-dasharray="" stroke-dashoffset="0" font-family="none" font-weight="none" font-size="none" text-anchor="none" style="mix-blend-mode: normal"><path d="M0,191.99654v-191.99654h191.99654v191.99654z" fill="none"></path><g fill="#000000"><g id="surface1"><path d="M90.44952,0c-13.86013,0.0287 -12.82708,3.73047 -5.50962,11.01923l23.64543,23.64543l-40.63341,40.63341c-8.4079,8.4079 -8.4079,21.89498 0,30.30288l17.90625,17.67668c8.4079,8.37921 21.89498,8.4079 30.30288,0l40.63341,-40.40385l23.1863,23.1863c8.09225,8.09225 11.01923,8.35051 11.01923,-5.50962v-75.52764c0,-25.2524 0.25826,-25.02284 -25.02284,-25.02284zM35.8125,36.73077c-19.77148,0 -35.8125,16.04102 -35.8125,35.8125v82.64423c0,19.77148 16.04102,35.8125 35.8125,35.8125h82.64423c19.77148,0 35.8125,-16.04102 35.8125,-35.8125v-46.83173l-22.03846,22.03846v24.79327c0,7.60442 -6.16962,13.77404 -13.77404,13.77404h-82.64423c-7.60442,0 -13.77404,-6.16962 -13.77404,-13.77404v-82.64423c0,-7.60442 6.16962,-13.77404 13.77404,-13.77404h25.2524l22.03846,-22.03846z"></path></g></g></g></svg>